<svg xmlns="http://www.w3.org/2000/svg" viewBox="0 0 1646.72 1175.59"><defs><style>.cls-1{fill:#d9c0ae;}.cls-2{fill:#b5a091;}.cls-10,.cls-3,.cls-8,.cls-9{fill:#fff;}.cls-3{opacity:0.65;}.cls-12,.cls-13,.cls-4{fill:none;}.cls-11,.cls-12,.cls-13,.cls-4{stroke:#000;}.cls-13,.cls-4{stroke-linecap:round;stroke-linejoin:round;}.cls-11,.cls-12,.cls-4{stroke-width:40px;}.cls-5{fill:#af8c70;}.cls-6{fill:#997a61;}.cls-7{fill:#ebd6c5;}.cls-8{opacity:0.42;}.cls-9{opacity:0.4;}.cls-11{fill:#f69392;}.cls-11,.cls-12{stroke-miterlimit:10;}.cls-13{stroke-width:30px;}</style></defs><g id="Layer_16" data-name="Layer 16"><path class="cls-1" d="M1635.74,118.66a98.5,98.5,0,0,1-40.42,79.62c-.12.09-.24.18-.37.26l-13.63,8.3L149.44,1078.35l20.25,29.49c8.43,12.29,5.07,30.3-8.13,39.34l-4.85,3.33a29,29,0,0,1-40.29-7.5L20.49,1003.26A28.94,28.94,0,0,1,28,963l4.86-3.32c13.2-9.05,31.23-5.69,40.9,8.4l8.81,12.84L1477.9,39.6h0l7.85-5.31.08-.05a98.81,98.81,0,0,1,149.89,84.43Z"/><polygon class="cls-2" points="89.84 1082.54 1632.32 92.85 1623.85 184.51 160.63 1082.54 180.79 1132.65 146.41 1155.49 89.84 1082.54"/><polygon class="cls-3" points="64.72 1033.28 1575.48 24.87 1498.77 20 86.71 974.19 51.21 948.04 20 964.92 64.72 1033.28"/><path d="M1454.23,175.7c-20.88-32.92-51-55.54-82.8-65.44q-15.95,14.7-32.79,28.11c29,10.95,56.09,32.54,75.32,62.87,19.11,30.13,27.09,63.61,24.79,94.33a102.59,102.59,0,0,0,25.43-14.84c5.27-4.39,10.19-9,15-13.66C1480.81,237.17,1472.73,204.87,1454.23,175.7Z"/><path d="M1534.71,123.75c-20.88-32.93-51-55.55-82.8-65.45Q1436,73,1419.12,86.41c29,11,56.09,32.55,75.33,62.87,19.1,30.14,27.08,63.61,24.79,94.34a102.8,102.8,0,0,0,25.43-14.85c5.26-4.38,10.18-9,15-13.65C1561.29,185.21,1553.21,152.91,1534.71,123.75Z"/><path class="cls-4" d="M1626.72,118.66a98.78,98.78,0,0,1-40.08,79.62l-.37.26-13.52,8.3L152.91,1078.35,173,1107.84c8.36,12.29,5,30.3-8.06,39.34l-4.81,3.33a28.6,28.6,0,0,1-39.95-7.5L25,1003.26A29.1,29.1,0,0,1,32.48,963l4.82-3.32c13.08-9.05,31-5.69,40.56,8.4l8.73,12.84L1470.2,39.6h0l7.79-5.31a.18.18,0,0,0,.07-.05A97,97,0,0,1,1528.78,20C1582.87,20,1626.72,64.17,1626.72,118.66Z"/><path class="cls-5" d="M1070.08,319.66c-2.22,4.45-49.19-99.91-160.35-79.9s-189-73.36-282.33,13.34c-90,83.54-188.19,142.31-171.37,329.43a75.8,75.8,0,0,1-7.44,40.28c-27.25,55.32-91.33,220,72.1,286.11,112.87,42.05,225,147.29,396,45.35,82.14-56.09,479.29,2,253.28-456.2"/><path class="cls-5" d="M1005.19,255.31S1004.61,139.57,1155.46,71c0,0,34.28,0,11.43,41.15-68.34,141,97.11,186.93,48,324.56,0,0,28.88,22.61,11.86,52.56-4.71,8.3,56.77,53.71-8.43,126.11"/><path class="cls-5" d="M677.94,221.61c8.62-2.53,43-83.6-15-174.85,0,0-28.08-21.06-33.35,12.28C620.57,260.72,473.13,207.79,498,285.43c-63.66,26.95-33.3,107.51-24.48,145.7"/><path class="cls-6" d="M467.34,830.78c28.66,31.81,69.3,51.77,111.58,58.55,40.33,6.47,81.78,1.52,122.25,7.1,42.92,5.91,84.83,23.62,128,19.67,64.08-5.85,122.36-91.36,183.8-110.54,32.47-10.13,86.1-19.49,111.19-42.46,20-18.34,36.89-9.27,43.74-35.54,50.21-192.78-70-304.38-135.19-432,53.08,29.35,104.08,88.21,128.75,143.61q23.7,53.24,43.11,108.22c21.52,61.29,38.81,125.82,33,190.51S1199.05,868,1141.62,898.3c-38.12,20.15-83,23.33-122.7,40.19-32.82,13.94-67.13,16.09-102.27,22.13-16.77,2.88-29.11,22.79-45.89,25.6-29,4.85-55.47,21.61-84.81,22.89-13.15.57-26.2-2-39.1-4.6-53.31-10.66-107.59-21.66-155.18-48-25.61-14.14-48.67-32.4-71.6-50.56-44-34.83-89.48-71.61-112.77-122.63-6.3-13.83-12.76-33.54-5.1-48.2,9-17.2,18.34-11.46,24.64,3.4,6.16,14.52,5.73,32.17,12,47.27A158.88,158.88,0,0,0,467.34,830.78Z"/><path class="cls-6" d="M1146.81,693.57c15,2.1,29.82,7.15,41.45,16.78,8.77,7.26,15.76,18.36,13.63,29.54-1.73,9.08-9,16.07-16.71,21.2a12.37,12.37,0,0,1-5.73,2.47c-2.55.18-5-1.12-7.18-2.38-4.38-2.47-8.84-5-12.31-8.63-2.82-2.95-4.89-6.52-7.08-10-9.7-15.28-22.07-27.69-36.11-39-6.36-5.1-11.8-9-1.9-11.33C1124.28,690.11,1137.32,692.24,1146.81,693.57Z"/><path class="cls-7" d="M658.72,268.6c23.52-7.65,49.88-12.13,72.44-2a43.18,43.18,0,0,0-15.39,4.47c-2.79,1.42-5.67,3.49-6.22,6.57-1,5.53,15.87,11.71,21.29,13.21,47.57,13.14,86.72,13.75,136.06,12.64,7.76-.17,24.67-2,29.67-7.91s-7-14.17-14.66-12.74c30.18-2.39,60.62-4.77,90.66-1s60,14.18,82.49,34.52c-13.82-46-60.39-79.87-108.37-78.91-19.32.39-38.23,5.81-57.53,6.89-37.54,2.09-73.8-12.21-110.78-18.94-61.92-11.27-131.31,1.26-175.37,46.2-12.06,12.29-24.21,27-33.09,41.7,13.55-3.67,26.7-16.53,39.22-23.35A294.36,294.36,0,0,1,658.72,268.6Z"/><path class="cls-6" d="M469.45,415S434.79,332.21,498,285.43c0,0-5.27-22.61,35.24-49.77S640.94,175.71,634,46.54L666.19,58.3,695.65,170l-25.19,60.75S470.61,384.29,469.45,415Z"/><path class="cls-6" d="M1044.13,162.4l111.33-85.05,18.67,23L1148,215.55l53,97.27,21.19,96.05,2.28,38.52,5.21,50.26,13.35,79.46-29.81,29.37-43.34-108.41c-55.09-155.27-164.74-242.76-164.74-242.76Z"/><path class="cls-8" d="M1052.29,233.4c10.51-28.63,21.67-57.28,38.09-83A232.3,232.3,0,0,1,1165,77.35c-26-.06-50.59,12.77-69.84,30.17s-33.89,39.19-48.33,60.75c-15.61,23.31-31.4,47-40.13,73.65-1.16,3.53-2.18,7.38-1,10.88,1.14,3.26,4,5.57,6.72,7.7,9.3,7.24,22.79,25.07,29.89,12.36C1047.8,263.09,1048.15,244.66,1052.29,233.4Z"/><path class="cls-9" d="M607.54,222.89c11.87-13.55,27.7-38,35.72-54.1,9.65-19.41,11.74-31.1,15.08-52.51s-.72-45.09-15.73-60.72C631,104.73,618.1,156.24,583.89,193.44c-26.63,29-65.75,47.13-85.86,82-6.72,11.63-11.13,27.5,5.61,16.4,15.33-10.18,24.23-20.95,41.68-28.16C568.71,254,590.11,242.79,607.54,222.89Z"/><path class="cls-4" d="M1070.08,326c-2.22,4.45-49.19-99.91-160.35-79.9s-189-73.36-282.33,13.34C537.43,343,439.21,401.75,456,588.88a75.79,75.79,0,0,1-7.44,40.27c-27.25,55.32-91.33,220,72.1,286.11,112.87,42.06,225,147.29,396,45.36,82.14-56.1,479.29,2,253.28-456.21"/><path class="cls-4" d="M1005.19,261.65s-.58-115.73,150.27-184.3c0,0,34.28,0,11.43,41.14-68.34,141.05,97.11,186.93,48,324.56,0,0,28.88,22.61,11.86,52.57-4.71,8.29,56.77,53.7-8.43,126.1"/><path class="cls-4" d="M677.94,228c8.62-2.53,43-83.59-15-174.85,0,0-28.08-21.06-33.35,12.28C620.57,267.07,473.13,214.13,498,291.77c-63.66,27-33.3,107.51-24.48,145.7"/><path d="M921.1,454.84c-92.31,1.57-92.3,138.87,0,140.43C1013.4,593.69,1013.38,456.4,921.1,454.84Zm13.83,91.85c-43-.73-43-64.7,0-65.43C977.72,481.45,977.72,546.51,934.93,546.69Z"/><path d="M600.92,429c-90.23,1.54-90.22,135.74,0,137.26C691.14,564.74,691.12,430.55,600.92,429Zm13.52,89.78c-42-.72-42-63.25,0-64C656.27,455,656.26,518.62,614.44,518.8Z"/><path class="cls-10" d="M614.44,518.8c-42-.72-42-63.25,0-64C656.27,455,656.26,518.62,614.44,518.8Z"/><path class="cls-10" d="M934.93,546.69c-43-.73-43-64.71,0-65.43C977.73,481.44,977.72,546.51,934.93,546.69Z"/><path d="M632.35,627.3a38.09,38.09,0,0,1,8.28-20.9c2.11-2.6,4.5-4.87,7-5.87,48-19.19,104.06-11.81,154.22,1.38C811.7,604.5,821.67,613.36,828,621c5.79,7,7,16.71,5,25.4s-7.35,24.27-12.75,31.54C798.59,707.06,769,730,728.38,735.34c-33.17,4.35-70.61-23.19-85.09-48.18C633.54,670.32,630.69,647,632.35,627.3Z"/><path d="M511.57,732.66C517.31,742,519.61,753,524,763c15.3,35.14,58.86,54.71,94.9,42.64,34.29-11.49,59.46-46.68,95.48-49.51,30-2.37,56.4,18.75,79,39s51.94,33.67,82.07,33.06c36.92-.74,59.72-25.69,90.62-46.15,26-17.24,56.8-25.85,87.58-30.52,9.25-1.4,19.57-2.22,27.14,3.35,11.82,8.69,13.51,30.77,2.29,40.26-14.54,12.3-23.84,13.44-42,15.71-32,4-55.53,17.74-84,33.13-25.46,13.79-49.33,30-75,59.83-13,15.14-21.09,23.64-37.43,35.07C825.1,952.52,801,960,777.21,960.53c-41.3,1-105.87-5.34-142.67-32.23-19.46-14.22-26.94-19.69-41.77-38.8a897,897,0,0,0-101.13-110c-13-12-30.57-21.62-24.7-41.52C473.82,714.64,499.29,712.74,511.57,732.66Z"/><path d="M1103.91,700.13c4.74,3.49,10.13,6,14.92,9.42,11.24,8,18.53,20.74,22.05,34.1s3.55,27.4,2.45,41.17c-.66,8.24-1.73,16.53-4.54,24.3s-7.39,15-11.41,22.33a3.23,3.23,0,0,0,5.16,3.8l.14-.15c17.48-18.35,38.4-40.24,40.82-65.47,3.53-36.71-7.87-51.11-28.36-66a52.64,52.64,0,0,0-12.89-6.69,107.83,107.83,0,0,0-18.38-4.41c-2.4-.32-9-1.8-12.18-2.51a3.23,3.23,0,0,0-3.17,5.23A32.22,32.22,0,0,0,1103.91,700.13Z"/><path class="cls-5" d="M292.74,949.89a146.48,146.48,0,0,1-16,62.74c-7,13.7-16.94,26.86-31.16,32.74-8.79,3.63-18.56,4.19-28,3.61-19.81-1.21-39.65-7.43-55.13-19.84-23.49-18.83-34.55-50.64-31.92-80.63s17.73-58,38.34-79.91,46.49-38.31,73.38-51.83c21.37-10.75,44-20,67.84-21.89s49.19,4.28,66.37,20.92c20.83,20.17,26.16,51.34,27.34,80.31.5,12.15.36,24.8-4.92,35.75-8.21,17-26.72,26.06-43.92,33.87L285.4,997.31"/><path class="cls-9" d="M172.49,905.61a154.61,154.61,0,0,1,17.94-17.33,291.46,291.46,0,0,1,113.34-58.73c27.51-7.21,57-10.26,84.19-1.84-8.31-6.53-16.79-13.14-26.66-16.9-13.54-5.15-28.5-4.49-43-3.75-13.54.69-27.21,1.4-40.26,5.06-11.2,3.13-21.69,8.37-31.88,14q-17.61,9.71-34.29,21c-16,10.83-31.58,23-42.49,39-6,8.76-10.43,18.48-14.39,28.32a132.83,132.83,0,0,0-6.49,19.51c-4.11,17.69-1.35,34.76.31,52.46-5.87-10.55-.68-30.25,2.44-41.09A105.75,105.75,0,0,1,172.49,905.61Z"/><path class="cls-6" d="M137.08,1005.26c-3-18.71,13.2-35,31.88-31.84,21.35,3.6,47.21-4.75,67.26-50.59,32.82-75,70.24-45.39,84.4-29.8a27.77,27.77,0,0,0,20.95,9.08c14.79-.23,36.38-6.53,45.41-38.76,11-39.15,10.8,23.32,10.11,55.07a27.77,27.77,0,0,1-15.24,24.18L293.3,987.35a27.65,27.65,0,0,0-5.79,3.91l-52.94,46.44a27.8,27.8,0,0,1-26.52,5.66l-51.73-16a27.8,27.8,0,0,1-19.24-22.14Z"/><path class="cls-11" d="M626.82,868.14c-.37,7.34-53.72,203.54,65,210.77,126.44,7.7,123.71-163.75,114.39-212.4S628.58,833.11,626.82,868.14Z"/><path class="cls-12" d="M620.54,903.44s1.28-52.1,57.07-63.61c0,0,56.28-11.7,80.37-1.45s45.62,18.72,52.85,56.56"/><path class="cls-4" d="M292.74,949.89a146.48,146.48,0,0,1-16,62.74c-7,13.7-16.94,26.86-31.16,32.74-8.79,3.63-18.56,4.19-28,3.61-19.81-1.21-39.65-7.43-55.13-19.84-23.49-18.83-34.55-50.64-31.92-80.63s17.73-58,38.34-79.91,46.49-38.31,73.38-51.83c21.37-10.75,44-20,67.84-21.89s49.19,4.28,66.37,20.92c20.83,20.17,26.16,51.34,27.34,80.31.5,12.15.36,24.8-4.92,35.75-8.21,17-26.72,26.06-43.92,33.87L285.4,997.31"/><path d="M701.16,876.37l2,9a3.31,3.31,0,0,0,6.35.45,75.43,75.43,0,0,1,43.1-44.07,3.32,3.32,0,0,0-.53-6.35,95.89,95.89,0,0,0-16.7-1.15c-18.52-.16-47.5-1.69-62.59,11.71-7.67,6.8,9.81,6.81,14.41,8.66C696.46,858.42,699.2,867.32,701.16,876.37Z"/><line class="cls-13" x1="720.29" y1="727.56" x2="705.22" y2="940.78"/></g></svg>